<?xml version="1.0" encoding="UTF-8"?>
<svg width="1376px" height="432px" viewBox="0 0 1376 432" version="1.1" xmlns="http://www.w3.org/2000/svg" xmlns:xlink="http://www.w3.org/1999/xlink">
    <title>bg</title>
    <defs>
        <path d="M0,86.465651 C0,74.4862019 10.1168,64.0506056 24.5138,61.3403527 C237.671,21.2134694 459.779,0 688,0 C916.221,0 1138.33,21.2134694 1351.49,61.3404338 C1365.88,64.0506056 1376,74.4862019 1376,86.465651 L1376,432 L0,432 L0,86.465651 Z" id="path-1"></path>
        <filter x="-39.7%" y="-39.0%" width="179.4%" height="178.1%" filterUnits="objectBoundingBox" id="filter-3">
            <feGaussianBlur stdDeviation="106.057159" in="SourceGraphic"></feGaussianBlur>
        </filter>
    </defs>
    <g id="é¡µé¢-1" stroke="none" strokeWidth="1" fill="none" fillRule="evenodd">
        <g id="FilaDoge-åˆ‡å›¾" transform="translate(-44.000000, -2890.000000)">
            <g id="bg" transform="translate(44.000000, 2890.000000)">
                <path d="M0,86.465651 C0,74.4862019 10.1168,64.0506056 24.5138,61.3403527 C237.671,21.2134694 459.779,0 688,0 C916.221,0 1138.33,21.2134694 1351.49,61.3404338 C1365.88,64.0506056 1376,74.4862019 1376,86.465651 L1376,432 L0,432 L0,86.465651 Z" id="background" fill="#23262F" fillRule="nonzero"></path>
                <mask id="mask-2" fill="white">
                    <use xlink:href="#path-1"></use>
                </mask>
                <use id="mask" fill="#23262F" fillRule="nonzero" opacity="0" style="mix-blend-mode: overlay;" xlink:href="#path-1"></use>
                <rect id="gradient" fill="" fillRule="nonzero" opacity="0.5" style="mix-blend-mode: overlay;" filter="url(#filter-3)" mask="url(#mask-2)" x="276" y="-194" width="801" height="815" rx="400.5"></rect>
            </g>
        </g>
    </g>
</svg>