<?xml version="1.0" encoding="UTF-8"?>
<svg width="402px" height="103px" viewBox="0 0 402 103" version="1.1" xmlns="http://www.w3.org/2000/svg" xmlns:xlink="http://www.w3.org/1999/xlink">
    <title>编组 7</title>
    <defs>
        <linearGradient x1="39.8995973%" y1="47.0148894%" x2="50%" y2="52.9851106%" id="linearGradient-1">
            <stop stop-color="#6E788E" offset="0%"></stop>
            <stop stop-color="#09090C" offset="100%"></stop>
        </linearGradient>
        <linearGradient x1="4.01265923%" y1="44.9383744%" x2="65.993036%" y2="54.6009727%" id="linearGradient-2">
            <stop stop-color="#6E788E" offset="0%"></stop>
            <stop stop-color="#09090C" offset="100%"></stop>
        </linearGradient>
    </defs>
    <g id="页面-1" stroke="none" stroke-width="1" fill="none" fill-rule="evenodd">
        <g id="FilaDoge-标题/报错" transform="translate(-148.000000, -248.000000)">
            <g id="编组-7" transform="translate(148.000000, 248.000000)">
                <path d="M201.121599,45.8715896 C201.121599,48.665133 199.646889,50.2050899 197.808174,52.2846982 C197.409167,52.7359805 196.902362,53.4774002 196.287762,54.5089572 C196.162843,54.7186063 196.096901,54.958116 196.096901,55.2021601 L196.096901,57.033605 C196.096899,57.436152 196.275969,57.8178375 196.585544,58.0751456 C197.912704,59.1782356 199.611347,59.624223 201.681474,59.4131077 C205.181839,59.0561342 208.829275,55.7530411 209.987392,51.7393799 C211.145508,47.7257188 209.95837,61.5062607 207.432673,64.2116062 C203.517709,68.4050346 198.120711,68.3057578 196.096901,68.3057578 C194.073091,68.3057578 187.527815,69.6404653 182.862468,64.6583401 C179.845037,61.4360258 180.209469,45.6830321 179.934969,49.5028564 C179.751969,52.0494059 180.727802,55.1581865 182.862468,58.829198 C184.861846,59.4784189 186.893756,59.8030293 188.9582,59.8030293 C190.807323,59.8030293 192.282197,59.2197843 193.38282,58.0532942 C193.619977,57.801935 193.752082,57.4694283 193.752082,57.1238495 L193.752082,55.1548791 C193.752045,54.9371184 193.699534,54.7225685 193.598965,54.5294217 C193.181933,53.7284926 192.690429,52.9802514 192.124453,52.2846982 C191.169212,51.1107599 188.701729,49.8346375 188.9582,45.512923 C189.086514,43.3507568 191.00049,40.4682081 195.03949,40.4682081 C199.078489,40.4682081 201.06572,44.0299959 201.121599,45.8715896 Z" id="路径-36备份" fill="#2B2E38"></path>
                <path d="M19,81.3063584 C19.4855491,81.3063584 19.867052,81.1676301 20.1445087,80.8901734 C20.4219653,80.6127168 20.5606936,80.2312139 20.5606936,79.7456647 L20.5606936,79.7456647 L20.5606936,53.2138728 C20.5606936,52.867052 20.734104,52.6936416 21.0809249,52.6936416 L21.0809249,52.6936416 L40.3294798,52.6936416 C40.8150289,52.6936416 41.1965318,52.5549133 41.4739884,52.2774566 C41.7514451,52 41.8901734,51.6184971 41.8901734,51.132948 L41.8901734,51.132948 L41.8901734,37.6069364 C41.8901734,37.1213873 41.7514451,36.7398844 41.4739884,36.4624277 C41.1965318,36.1849711 40.8150289,36.0462428 40.3294798,36.0462428 L40.3294798,36.0462428 L21.0809249,36.0462428 C20.734104,36.0462428 20.5606936,35.8728324 20.5606936,35.5260116 L20.5606936,35.5260116 L20.5606936,25.7456647 C20.5606936,25.3988439 20.734104,25.2254335 21.0809249,25.2254335 L21.0809249,25.2254335 L52.0867052,25.2254335 C52.5722543,25.2254335 52.9537572,25.0867052 53.2312139,24.8092486 C53.5086705,24.5317919 53.6473988,24.150289 53.6473988,23.6647399 L53.6473988,23.6647399 L53.6473988,10.0346821 C53.6473988,9.54913295 53.5086705,9.16763006 53.2312139,8.89017341 C52.9537572,8.61271676 52.5722543,8.47398844 52.0867052,8.47398844 L52.0867052,8.47398844 L2.56069364,8.47398844 C2.07514451,8.47398844 1.69364162,8.61271676 1.41618497,8.89017341 C1.13872832,9.16763006 1,9.54913295 1,10.0346821 L1,10.0346821 L1,79.7456647 C1,80.2312139 1.13872832,80.6127168 1.41618497,80.8901734 C1.69364162,81.1676301 2.07514451,81.3063584 2.56069364,81.3063584 L2.56069364,81.3063584 L19,81.3063584 Z M67.9017341,23.5606936 C70.7456647,23.5606936 73.0867052,22.6242775 74.9248555,20.7514451 C76.7630058,18.8786127 77.6820809,16.5549133 77.6820809,13.7803468 C77.6820809,10.867052 76.7630058,8.50867052 74.9248555,6.70520231 C73.0867052,4.9017341 70.7456647,4 67.9017341,4 C65.0578035,4 62.716763,4.9017341 60.8786127,6.70520231 C59.0404624,8.50867052 58.1213873,10.867052 58.1213873,13.7803468 C58.1213873,16.6242775 59.0404624,18.9653179 60.8786127,20.8034682 C62.716763,22.6416185 65.0578035,23.5606936 67.9017341,23.5606936 Z M76.017341,81.3063584 C76.5028902,81.3063584 76.8843931,81.1676301 77.1618497,80.8901734 C77.4393064,80.6127168 77.5780347,80.2312139 77.5780347,79.7456647 L77.5780347,79.7456647 L77.5780347,28.7630058 C77.5780347,28.2774566 77.4393064,27.8959538 77.1618497,27.6184971 C76.8843931,27.3410405 76.5028902,27.2023121 76.017341,27.2023121 L76.017341,27.2023121 L59.5780347,27.2023121 C59.0924855,27.2023121 58.7109827,27.3410405 58.433526,27.6184971 C58.1560694,27.8959538 58.017341,28.2774566 58.017341,28.7630058 L58.017341,28.7630058 L58.017341,79.7456647 C58.017341,80.2312139 58.1560694,80.6127168 58.433526,80.8901734 C58.7109827,81.1676301 59.0924855,81.3063584 59.5780347,81.3063584 L59.5780347,81.3063584 L76.017341,81.3063584 Z M102.445087,81.3063584 C102.930636,81.3063584 103.312139,81.1676301 103.589595,80.8901734 C103.867052,80.6127168 104.00578,80.2312139 104.00578,79.7456647 L104.00578,79.7456647 L104.00578,10.0346821 C104.00578,9.54913295 103.867052,9.16763006 103.589595,8.89017341 C103.312139,8.61271676 102.930636,8.47398844 102.445087,8.47398844 L102.445087,8.47398844 L86.0057803,8.47398844 C85.5202312,8.47398844 85.1387283,8.61271676 84.8612717,8.89017341 C84.583815,9.16763006 84.4450867,9.54913295 84.4450867,10.0346821 L84.4450867,10.0346821 L84.4450867,79.7456647 C84.4450867,80.2312139 84.583815,80.6127168 84.8612717,80.8901734 C85.1387283,81.1676301 85.5202312,81.3063584 86.0057803,81.3063584 L86.0057803,81.3063584 L102.445087,81.3063584 Z M127,82.1387283 C130.398844,82.1387283 133.138728,81.6358382 135.219653,80.6300578 C137.300578,79.6242775 138.930636,78.0462428 140.109827,75.8959538 C140.248555,75.6878613 140.369942,75.6011561 140.473988,75.6358382 C140.578035,75.6705202 140.630058,75.8265896 140.630058,76.1040462 L140.630058,76.1040462 L140.630058,79.7456647 C140.630058,80.2312139 140.768786,80.6127168 141.046243,80.8901734 C141.323699,81.1676301 141.705202,81.3063584 142.190751,81.3063584 L142.190751,81.3063584 L158.630058,81.3063584 C159.115607,81.3063584 159.49711,81.1676301 159.774566,80.8901734 C160.052023,80.6127168 160.190751,80.2312139 160.190751,79.7456647 L160.190751,79.7456647 L160.190751,44.3699422 C160.190751,41.1098266 159.046243,38.0924855 156.757225,35.3179191 C154.468208,32.5433526 151.346821,30.3583815 147.393064,28.7630058 C143.439306,27.1676301 139.104046,26.3699422 134.387283,26.3699422 C129.809249,26.3699422 125.66474,27.1156069 121.953757,28.6069364 C118.242775,30.0982659 115.277457,32.1271676 113.057803,34.6936416 C110.83815,37.2601156 109.589595,40.1040462 109.312139,43.2254335 C109.312139,43.9190751 109.797688,44.3352601 110.768786,44.4739884 L110.768786,44.4739884 L127.520231,46.5549133 C127.936416,46.6242775 128.265896,46.5722543 128.508671,46.3988439 C128.751445,46.2254335 129.011561,45.8959538 129.289017,45.4104046 C129.705202,44.716763 130.398844,44.1618497 131.369942,43.7456647 C132.34104,43.3294798 133.450867,43.1213873 134.699422,43.1213873 C136.50289,43.1213873 137.942197,43.5722543 139.017341,44.4739884 C140.092486,45.3757225 140.630058,46.5549133 140.630058,48.0115607 L140.630058,48.0115607 L140.630058,49.8843931 C140.630058,50.2312139 140.456647,50.4046243 140.109827,50.4046243 L140.109827,50.4046243 L130.433526,50.4046243 C123.358382,50.4046243 117.965318,51.8265896 114.254335,54.6705202 C110.543353,57.5144509 108.687861,61.5722543 108.687861,66.8439306 C108.687861,71.8381503 110.317919,75.6358382 113.578035,78.2369942 C116.83815,80.8381503 121.312139,82.1387283 127,82.1387283 Z M133.034682,68.6127168 C131.508671,68.6127168 130.346821,68.2312139 129.549133,67.4682081 C128.751445,66.7052023 128.352601,65.699422 128.352601,64.4508671 C128.352601,61.6069364 130.537572,60.1849711 134.907514,60.1849711 L134.907514,60.1849711 L140.109827,60.1849711 C140.456647,60.1849711 140.630058,60.3583815 140.630058,60.7052023 L140.630058,60.7052023 L140.630058,62.0578035 C140.630058,64.0693642 139.919075,65.6647399 138.49711,66.8439306 C137.075145,68.0231214 135.254335,68.6127168 133.034682,68.6127168 Z M195.982659,81.3063584 C201.601156,81.3063584 206.578035,80.3352601 210.913295,78.3930636 C215.248555,76.4508671 218.595376,73.7109827 220.953757,70.1734104 C223.312139,66.6358382 224.491329,62.5433526 224.491329,57.8959538 L224.491329,57.8959538 L224.491329,31.8843931 C224.491329,27.2369942 223.312139,23.1445087 220.953757,19.6069364 C218.595376,16.0693642 215.248555,13.3294798 210.913295,11.3872832 C206.578035,9.44508671 201.601156,8.47398844 195.982659,8.47398844 L195.982659,8.47398844 L169.242775,8.47398844 C168.757225,8.47398844 168.375723,8.61271676 168.098266,8.89017341 C167.820809,9.16763006 167.682081,9.54913295 167.682081,10.0346821 L167.682081,10.0346821 L167.682081,79.7456647 C167.682081,80.2312139 167.820809,80.6127168 168.098266,80.8901734 C168.375723,81.1676301 168.757225,81.3063584 169.242775,81.3063584 L169.242775,81.3063584 L195.982659,81.3063584 Z M196.710983,64.5549133 L187.763006,64.5549133 C187.416185,64.5549133 187.242775,64.3815029 187.242775,64.0346821 L187.242775,64.0346821 L187.242775,25.7456647 C187.242775,25.3988439 187.416185,25.2254335 187.763006,25.2254335 L187.763006,25.2254335 L196.606936,25.2254335 C199.104046,25.2254335 201.115607,26.1445087 202.641618,27.982659 C204.16763,29.8208092 204.930636,32.2312139 204.930636,35.2138728 L204.930636,35.2138728 L204.930636,54.566474 C204.861272,57.5491329 204.063584,59.9595376 202.537572,61.7976879 C201.011561,63.6358382 199.069364,64.5549133 196.710983,64.5549133 L196.710983,64.5549133 Z M256.953757,82.1387283 C263.682081,82.1387283 269.317919,80.3179191 273.861272,76.6763006 C278.404624,73.0346821 281.404624,68.0924855 282.861272,61.849711 C283.416185,59.2138728 283.693642,56.5780347 283.693642,53.9421965 C283.693642,50.6820809 283.277457,47.5953757 282.445087,44.6820809 C280.780347,39.0635838 277.745665,34.6069364 273.34104,31.3121387 C268.936416,28.017341 263.508671,26.3699422 257.057803,26.3699422 C250.606936,26.3699422 245.144509,28.017341 240.67052,31.3121387 C236.196532,34.6069364 233.127168,39.132948 231.462428,44.8901734 C230.630058,47.6647399 230.213873,50.7514451 230.213873,54.150289 C230.213873,57.2023121 230.560694,59.9768786 231.254335,62.4739884 C232.710983,68.5086705 235.710983,73.2947977 240.254335,76.8323699 C244.797688,80.3699422 250.364162,82.1387283 256.953757,82.1387283 Z M256.953757,65.3872832 C253.554913,65.3872832 251.33526,63.1676301 250.294798,58.7283237 C250.017341,57.4104046 249.878613,55.849711 249.878613,54.0462428 C249.878613,52.0346821 250.052023,50.4393064 250.398844,49.2601156 C251.300578,45.1676301 253.485549,43.1213873 256.953757,43.1213873 C260.283237,43.1213873 262.468208,45.1676301 263.508671,49.2601156 C263.855491,50.8554913 264.028902,52.4508671 264.028902,54.0462428 C264.028902,55.849711 263.890173,57.4104046 263.612717,58.7283237 C263.196532,60.7398844 262.433526,62.3526012 261.323699,63.566474 C260.213873,64.7803468 258.757225,65.3872832 256.953757,65.3872832 Z M311.578035,101.699422 C320.248555,101.699422 327.445087,99.6011561 333.16763,95.4046243 C338.890173,91.2080925 341.751445,84.150289 341.751445,74.2312139 L341.751445,74.2312139 L341.751445,28.7630058 C341.751445,28.2774566 341.612717,27.8959538 341.33526,27.6184971 C341.057803,27.3410405 340.676301,27.2023121 340.190751,27.2023121 L340.190751,27.2023121 L323.751445,27.2023121 C323.265896,27.2023121 322.884393,27.3410405 322.606936,27.6184971 C322.32948,27.8959538 322.190751,28.2774566 322.190751,28.7630058 L322.190751,28.7630058 L322.190751,30.5317919 C322.190751,30.7398844 322.121387,30.8612717 321.982659,30.8959538 C321.843931,30.9306358 321.705202,30.8786127 321.566474,30.7398844 C319,27.8265896 315.323699,26.3699422 310.537572,26.3699422 C305.890173,26.3699422 301.780347,27.6531792 298.208092,30.2196532 C294.635838,32.7861272 292.017341,36.2543353 290.352601,40.6242775 C288.895954,44.2312139 288.16763,48.6011561 288.16763,53.734104 C288.16763,58.3815029 288.757225,62.4393064 289.936416,65.9075145 C292.988439,74.9248555 300.063584,79.433526 311.16185,79.433526 C315.601156,79.433526 319,78.3236994 321.358382,76.1040462 C321.566474,75.8959538 321.757225,75.8265896 321.930636,75.8959538 C322.104046,75.9653179 322.156069,76.1387283 322.086705,76.416185 C321.67052,79.2601156 320.387283,81.3757225 318.236994,82.7630058 C316.086705,84.150289 313.346821,84.8439306 310.017341,84.8439306 C307.450867,84.8439306 304.710983,84.4624277 301.797688,83.699422 C300.549133,83.3526012 299.924855,83.7687861 299.924855,84.9479769 L299.924855,84.9479769 L299.300578,98.9942197 C299.300578,99.9653179 299.751445,100.554913 300.653179,100.763006 C304.052023,101.387283 307.693642,101.699422 311.578035,101.699422 Z M315.323699,64.3468208 C312.549133,64.3468208 310.537572,63.132948 309.289017,60.7052023 C308.387283,58.9710983 307.936416,56.716763 307.936416,53.9421965 C307.936416,51.0982659 308.491329,48.7052023 309.601156,46.7630058 C310.849711,44.3352601 312.687861,43.1213873 315.115607,43.1213873 C317.890173,43.1213873 319.867052,44.3699422 321.046243,46.867052 C321.809249,48.6011561 322.190751,50.8554913 322.190751,53.6300578 C322.190751,56.6127168 321.843931,59.0057803 321.150289,60.8092486 C320.040462,63.1676301 318.098266,64.3468208 315.323699,64.3468208 Z M376.606936,82.1387283 C380.768786,82.1387283 384.653179,81.566474 388.260116,80.4219653 C391.867052,79.2774566 394.884393,77.5260116 397.312139,75.1676301 C397.65896,74.8901734 397.83237,74.5433526 397.83237,74.1271676 C397.83237,73.7109827 397.693642,73.3294798 397.416185,72.982659 L397.416185,72.982659 L389.508671,62.8901734 C389.231214,62.4739884 388.849711,62.265896 388.364162,62.265896 C388.017341,62.265896 387.67052,62.4046243 387.323699,62.6820809 C386.213873,63.7225434 384.861272,64.5202312 383.265896,65.0751445 C381.67052,65.6300578 379.936416,65.9075145 378.063584,65.9075145 C375.843931,65.9075145 373.849711,65.5086705 372.080925,64.7109827 C370.312139,63.9132948 369.080925,62.9248555 368.387283,61.7456647 C367.83237,60.9132948 367.554913,60.1849711 367.554913,59.5606936 C367.554913,59.283237 367.693642,59.1445087 367.971098,59.1445087 L367.971098,59.1445087 L399.184971,59.1445087 C400.225434,59.1445087 400.745665,58.6589595 400.745665,57.6878613 C400.815029,57.0635838 400.849711,56.1965318 400.849711,55.0867052 C400.849711,53.4913295 400.745665,51.9306358 400.537572,50.4046243 C399.843931,45.8265896 398.265896,41.716763 395.803468,38.0751445 C393.34104,34.433526 390.219653,31.5722543 386.439306,29.4913295 C382.65896,27.4104046 378.549133,26.3699422 374.109827,26.3699422 C368.283237,26.3699422 363.219653,27.8612717 358.919075,30.8439306 C354.618497,33.8265896 351.531792,37.9537572 349.65896,43.2254335 C348.410405,46.6242775 347.786127,50.5086705 347.786127,54.8786127 C347.786127,59.0404624 348.549133,62.9248555 350.075145,66.5317919 C352.156069,71.5260116 355.485549,75.3757225 360.063584,78.0809249 C364.641618,80.7861272 370.156069,82.1387283 376.606936,82.1387283 Z M380.040462,49.0520231 L368.179191,49.0520231 C368.040462,49.0520231 367.901734,49 367.763006,48.8959538 C367.624277,48.7919075 367.589595,48.6358382 367.65896,48.4277457 L367.65896,48.4277457 L368.075145,47.283237 C369.184971,44.5086705 371.16185,43.1213873 374.00578,43.1213873 C375.601156,43.1213873 376.936416,43.4855491 378.011561,44.2138728 C379.086705,44.9421965 379.797688,45.9653179 380.144509,47.283237 C380.352601,47.9075145 380.456647,48.3583815 380.456647,48.6358382 C380.456647,48.9132948 380.317919,49.0520231 380.040462,49.0520231 L380.040462,49.0520231 Z" id="FilaDoge备份" stroke="url(#linearGradient-1)" opacity="0.66141183" fill-rule="nonzero"></path>
                <path d="M18,77.3063584 C18.4855491,77.3063584 18.867052,77.1676301 19.1445087,76.8901734 C19.4219653,76.6127168 19.5606936,76.2312139 19.5606936,75.7456647 L19.5606936,75.7456647 L19.5606936,49.2138728 C19.5606936,48.867052 19.734104,48.6936416 20.0809249,48.6936416 L20.0809249,48.6936416 L39.3294798,48.6936416 C39.8150289,48.6936416 40.1965318,48.5549133 40.4739884,48.2774566 C40.7514451,48 40.8901734,47.6184971 40.8901734,47.132948 L40.8901734,47.132948 L40.8901734,33.6069364 C40.8901734,33.1213873 40.7514451,32.7398844 40.4739884,32.4624277 C40.1965318,32.1849711 39.8150289,32.0462428 39.3294798,32.0462428 L39.3294798,32.0462428 L20.0809249,32.0462428 C19.734104,32.0462428 19.5606936,31.8728324 19.5606936,31.5260116 L19.5606936,31.5260116 L19.5606936,21.7456647 C19.5606936,21.3988439 19.734104,21.2254335 20.0809249,21.2254335 L20.0809249,21.2254335 L51.0867052,21.2254335 C51.5722543,21.2254335 51.9537572,21.0867052 52.2312139,20.8092486 C52.5086705,20.5317919 52.6473988,20.150289 52.6473988,19.6647399 L52.6473988,19.6647399 L52.6473988,6.03468208 C52.6473988,5.54913295 52.5086705,5.16763006 52.2312139,4.89017341 C51.9537572,4.61271676 51.5722543,4.47398844 51.0867052,4.47398844 L51.0867052,4.47398844 L1.56069364,4.47398844 C1.07514451,4.47398844 0.693641618,4.61271676 0.416184971,4.89017341 C0.138728324,5.16763006 -5.68434189e-14,5.54913295 -5.68434189e-14,6.03468208 L-5.68434189e-14,6.03468208 L-5.68434189e-14,75.7456647 C-5.68434189e-14,76.2312139 0.138728324,76.6127168 0.416184971,76.8901734 C0.693641618,77.1676301 1.07514451,77.3063584 1.56069364,77.3063584 L1.56069364,77.3063584 L18,77.3063584 Z M66.9017341,19.5606936 C69.7456647,19.5606936 72.0867052,18.6242775 73.9248555,16.7514451 C75.7630058,14.8786127 76.6820809,12.5549133 76.6820809,9.78034682 C76.6820809,6.86705202 75.7630058,4.50867052 73.9248555,2.70520231 C72.0867052,0.901734104 69.7456647,-2.27373675e-13 66.9017341,-2.27373675e-13 C64.0578035,-2.27373675e-13 61.716763,0.901734104 59.8786127,2.70520231 C58.0404624,4.50867052 57.1213873,6.86705202 57.1213873,9.78034682 C57.1213873,12.6242775 58.0404624,14.9653179 59.8786127,16.8034682 C61.716763,18.6416185 64.0578035,19.5606936 66.9017341,19.5606936 Z M75.017341,77.3063584 C75.5028902,77.3063584 75.8843931,77.1676301 76.1618497,76.8901734 C76.4393064,76.6127168 76.5780347,76.2312139 76.5780347,75.7456647 L76.5780347,75.7456647 L76.5780347,24.7630058 C76.5780347,24.2774566 76.4393064,23.8959538 76.1618497,23.6184971 C75.8843931,23.3410405 75.5028902,23.2023121 75.017341,23.2023121 L75.017341,23.2023121 L58.5780347,23.2023121 C58.0924855,23.2023121 57.7109827,23.3410405 57.433526,23.6184971 C57.1560694,23.8959538 57.017341,24.2774566 57.017341,24.7630058 L57.017341,24.7630058 L57.017341,75.7456647 C57.017341,76.2312139 57.1560694,76.6127168 57.433526,76.8901734 C57.7109827,77.1676301 58.0924855,77.3063584 58.5780347,77.3063584 L58.5780347,77.3063584 L75.017341,77.3063584 Z M101.445087,77.3063584 C101.930636,77.3063584 102.312139,77.1676301 102.589595,76.8901734 C102.867052,76.6127168 103.00578,76.2312139 103.00578,75.7456647 L103.00578,75.7456647 L103.00578,6.03468208 C103.00578,5.54913295 102.867052,5.16763006 102.589595,4.89017341 C102.312139,4.61271676 101.930636,4.47398844 101.445087,4.47398844 L101.445087,4.47398844 L85.0057803,4.47398844 C84.5202312,4.47398844 84.1387283,4.61271676 83.8612717,4.89017341 C83.583815,5.16763006 83.4450867,5.54913295 83.4450867,6.03468208 L83.4450867,6.03468208 L83.4450867,75.7456647 C83.4450867,76.2312139 83.583815,76.6127168 83.8612717,76.8901734 C84.1387283,77.1676301 84.5202312,77.3063584 85.0057803,77.3063584 L85.0057803,77.3063584 L101.445087,77.3063584 Z M126,78.1387283 C129.398844,78.1387283 132.138728,77.6358382 134.219653,76.6300578 C136.300578,75.6242775 137.930636,74.0462428 139.109827,71.8959538 C139.248555,71.6878613 139.369942,71.6011561 139.473988,71.6358382 C139.578035,71.6705202 139.630058,71.8265896 139.630058,72.1040462 L139.630058,72.1040462 L139.630058,75.7456647 C139.630058,76.2312139 139.768786,76.6127168 140.046243,76.8901734 C140.323699,77.1676301 140.705202,77.3063584 141.190751,77.3063584 L141.190751,77.3063584 L157.630058,77.3063584 C158.115607,77.3063584 158.49711,77.1676301 158.774566,76.8901734 C159.052023,76.6127168 159.190751,76.2312139 159.190751,75.7456647 L159.190751,75.7456647 L159.190751,40.3699422 C159.190751,37.1098266 158.046243,34.0924855 155.757225,31.3179191 C153.468208,28.5433526 150.346821,26.3583815 146.393064,24.7630058 C142.439306,23.1676301 138.104046,22.3699422 133.387283,22.3699422 C128.809249,22.3699422 124.66474,23.1156069 120.953757,24.6069364 C117.242775,26.0982659 114.277457,28.1271676 112.057803,30.6936416 C109.83815,33.2601156 108.589595,36.1040462 108.312139,39.2254335 C108.312139,39.9190751 108.797688,40.3352601 109.768786,40.4739884 L109.768786,40.4739884 L126.520231,42.5549133 C126.936416,42.6242775 127.265896,42.5722543 127.508671,42.3988439 C127.751445,42.2254335 128.011561,41.8959538 128.289017,41.4104046 C128.705202,40.716763 129.398844,40.1618497 130.369942,39.7456647 C131.34104,39.3294798 132.450867,39.1213873 133.699422,39.1213873 C135.50289,39.1213873 136.942197,39.5722543 138.017341,40.4739884 C139.092486,41.3757225 139.630058,42.5549133 139.630058,44.0115607 L139.630058,44.0115607 L139.630058,45.8843931 C139.630058,46.2312139 139.456647,46.4046243 139.109827,46.4046243 L139.109827,46.4046243 L129.433526,46.4046243 C122.358382,46.4046243 116.965318,47.8265896 113.254335,50.6705202 C109.543353,53.5144509 107.687861,57.5722543 107.687861,62.8439306 C107.687861,67.8381503 109.317919,71.6358382 112.578035,74.2369942 C115.83815,76.8381503 120.312139,78.1387283 126,78.1387283 Z M132.034682,64.6127168 C130.508671,64.6127168 129.346821,64.2312139 128.549133,63.4682081 C127.751445,62.7052023 127.352601,61.699422 127.352601,60.4508671 C127.352601,57.6069364 129.537572,56.1849711 133.907514,56.1849711 L133.907514,56.1849711 L139.109827,56.1849711 C139.456647,56.1849711 139.630058,56.3583815 139.630058,56.7052023 L139.630058,56.7052023 L139.630058,58.0578035 C139.630058,60.0693642 138.919075,61.6647399 137.49711,62.8439306 C136.075145,64.0231214 134.254335,64.6127168 132.034682,64.6127168 Z M194.982659,77.3063584 C200.601156,77.3063584 205.578035,76.3352601 209.913295,74.3930636 C214.248555,72.4508671 217.595376,69.7109827 219.953757,66.1734104 C222.312139,62.6358382 223.491329,58.5433526 223.491329,53.8959538 L223.491329,53.8959538 L223.491329,27.8843931 C223.491329,23.2369942 222.312139,19.1445087 219.953757,15.6069364 C217.595376,12.0693642 214.248555,9.32947977 209.913295,7.38728324 C205.578035,5.44508671 200.601156,4.47398844 194.982659,4.47398844 L194.982659,4.47398844 L168.242775,4.47398844 C167.757225,4.47398844 167.375723,4.61271676 167.098266,4.89017341 C166.820809,5.16763006 166.682081,5.54913295 166.682081,6.03468208 L166.682081,6.03468208 L166.682081,75.7456647 C166.682081,76.2312139 166.820809,76.6127168 167.098266,76.8901734 C167.375723,77.1676301 167.757225,77.3063584 168.242775,77.3063584 L168.242775,77.3063584 L194.982659,77.3063584 Z M195.710983,60.5549133 L186.763006,60.5549133 C186.416185,60.5549133 186.242775,60.3815029 186.242775,60.0346821 L186.242775,60.0346821 L186.242775,21.7456647 C186.242775,21.3988439 186.416185,21.2254335 186.763006,21.2254335 L186.763006,21.2254335 L195.606936,21.2254335 C198.104046,21.2254335 200.115607,22.1445087 201.641618,23.982659 C203.16763,25.8208092 203.930636,28.2312139 203.930636,31.2138728 L203.930636,31.2138728 L203.930636,50.566474 C203.861272,53.5491329 203.063584,55.9595376 201.537572,57.7976879 C200.011561,59.6358382 198.069364,60.5549133 195.710983,60.5549133 L195.710983,60.5549133 Z M255.953757,78.1387283 C262.682081,78.1387283 268.317919,76.3179191 272.861272,72.6763006 C277.404624,69.0346821 280.404624,64.0924855 281.861272,57.849711 C282.416185,55.2138728 282.693642,52.5780347 282.693642,49.9421965 C282.693642,46.6820809 282.277457,43.5953757 281.445087,40.6820809 C279.780347,35.0635838 276.745665,30.6069364 272.34104,27.3121387 C267.936416,24.017341 262.508671,22.3699422 256.057803,22.3699422 C249.606936,22.3699422 244.144509,24.017341 239.67052,27.3121387 C235.196532,30.6069364 232.127168,35.132948 230.462428,40.8901734 C229.630058,43.6647399 229.213873,46.7514451 229.213873,50.150289 C229.213873,53.2023121 229.560694,55.9768786 230.254335,58.4739884 C231.710983,64.5086705 234.710983,69.2947977 239.254335,72.8323699 C243.797688,76.3699422 249.364162,78.1387283 255.953757,78.1387283 Z M255.953757,61.3872832 C252.554913,61.3872832 250.33526,59.1676301 249.294798,54.7283237 C249.017341,53.4104046 248.878613,51.849711 248.878613,50.0462428 C248.878613,48.0346821 249.052023,46.4393064 249.398844,45.2601156 C250.300578,41.1676301 252.485549,39.1213873 255.953757,39.1213873 C259.283237,39.1213873 261.468208,41.1676301 262.508671,45.2601156 C262.855491,46.8554913 263.028902,48.4508671 263.028902,50.0462428 C263.028902,51.849711 262.890173,53.4104046 262.612717,54.7283237 C262.196532,56.7398844 261.433526,58.3526012 260.323699,59.566474 C259.213873,60.7803468 257.757225,61.3872832 255.953757,61.3872832 Z M310.578035,97.699422 C319.248555,97.699422 326.445087,95.6011561 332.16763,91.4046243 C337.890173,87.2080925 340.751445,80.150289 340.751445,70.2312139 L340.751445,70.2312139 L340.751445,24.7630058 C340.751445,24.2774566 340.612717,23.8959538 340.33526,23.6184971 C340.057803,23.3410405 339.676301,23.2023121 339.190751,23.2023121 L339.190751,23.2023121 L322.751445,23.2023121 C322.265896,23.2023121 321.884393,23.3410405 321.606936,23.6184971 C321.32948,23.8959538 321.190751,24.2774566 321.190751,24.7630058 L321.190751,24.7630058 L321.190751,26.5317919 C321.190751,26.7398844 321.121387,26.8612717 320.982659,26.8959538 C320.843931,26.9306358 320.705202,26.8786127 320.566474,26.7398844 C318,23.8265896 314.323699,22.3699422 309.537572,22.3699422 C304.890173,22.3699422 300.780347,23.6531792 297.208092,26.2196532 C293.635838,28.7861272 291.017341,32.2543353 289.352601,36.6242775 C287.895954,40.2312139 287.16763,44.6011561 287.16763,49.734104 C287.16763,54.3815029 287.757225,58.4393064 288.936416,61.9075145 C291.988439,70.9248555 299.063584,75.433526 310.16185,75.433526 C314.601156,75.433526 318,74.3236994 320.358382,72.1040462 C320.566474,71.8959538 320.757225,71.8265896 320.930636,71.8959538 C321.104046,71.9653179 321.156069,72.1387283 321.086705,72.416185 C320.67052,75.2601156 319.387283,77.3757225 317.236994,78.7630058 C315.086705,80.150289 312.346821,80.8439306 309.017341,80.8439306 C306.450867,80.8439306 303.710983,80.4624277 300.797688,79.699422 C299.549133,79.3526012 298.924855,79.7687861 298.924855,80.9479769 L298.924855,80.9479769 L298.300578,94.9942197 C298.300578,95.9653179 298.751445,96.5549133 299.653179,96.7630058 C303.052023,97.3872832 306.693642,97.699422 310.578035,97.699422 Z M314.323699,60.3468208 C311.549133,60.3468208 309.537572,59.132948 308.289017,56.7052023 C307.387283,54.9710983 306.936416,52.716763 306.936416,49.9421965 C306.936416,47.0982659 307.491329,44.7052023 308.601156,42.7630058 C309.849711,40.3352601 311.687861,39.1213873 314.115607,39.1213873 C316.890173,39.1213873 318.867052,40.3699422 320.046243,42.867052 C320.809249,44.6011561 321.190751,46.8554913 321.190751,49.6300578 C321.190751,52.6127168 320.843931,55.0057803 320.150289,56.8092486 C319.040462,59.1676301 317.098266,60.3468208 314.323699,60.3468208 Z M375.606936,78.1387283 C379.768786,78.1387283 383.653179,77.566474 387.260116,76.4219653 C390.867052,75.2774566 393.884393,73.5260116 396.312139,71.1676301 C396.65896,70.8901734 396.83237,70.5433526 396.83237,70.1271676 C396.83237,69.7109827 396.693642,69.3294798 396.416185,68.982659 L396.416185,68.982659 L388.508671,58.8901734 C388.231214,58.4739884 387.849711,58.265896 387.364162,58.265896 C387.017341,58.265896 386.67052,58.4046243 386.323699,58.6820809 C385.213873,59.7225434 383.861272,60.5202312 382.265896,61.0751445 C380.67052,61.6300578 378.936416,61.9075145 377.063584,61.9075145 C374.843931,61.9075145 372.849711,61.5086705 371.080925,60.7109827 C369.312139,59.9132948 368.080925,58.9248555 367.387283,57.7456647 C366.83237,56.9132948 366.554913,56.1849711 366.554913,55.5606936 C366.554913,55.283237 366.693642,55.1445087 366.971098,55.1445087 L366.971098,55.1445087 L398.184971,55.1445087 C399.225434,55.1445087 399.745665,54.6589595 399.745665,53.6878613 C399.815029,53.0635838 399.849711,52.1965318 399.849711,51.0867052 C399.849711,49.4913295 399.745665,47.9306358 399.537572,46.4046243 C398.843931,41.8265896 397.265896,37.716763 394.803468,34.0751445 C392.34104,30.433526 389.219653,27.5722543 385.439306,25.4913295 C381.65896,23.4104046 377.549133,22.3699422 373.109827,22.3699422 C367.283237,22.3699422 362.219653,23.8612717 357.919075,26.8439306 C353.618497,29.8265896 350.531792,33.9537572 348.65896,39.2254335 C347.410405,42.6242775 346.786127,46.5086705 346.786127,50.8786127 C346.786127,55.0404624 347.549133,58.9248555 349.075145,62.5317919 C351.156069,67.5260116 354.485549,71.3757225 359.063584,74.0809249 C363.641618,76.7861272 369.156069,78.1387283 375.606936,78.1387283 Z M379.040462,45.0520231 L367.179191,45.0520231 C367.040462,45.0520231 366.901734,45 366.763006,44.8959538 C366.624277,44.7919075 366.589595,44.6358382 366.65896,44.4277457 L366.65896,44.4277457 L367.075145,43.283237 C368.184971,40.5086705 370.16185,39.1213873 373.00578,39.1213873 C374.601156,39.1213873 375.936416,39.4855491 377.011561,40.2138728 C378.086705,40.9421965 378.797688,41.9653179 379.144509,43.283237 C379.352601,43.9075145 379.456647,44.3583815 379.456647,44.6358382 C379.456647,44.9132948 379.317919,45.0520231 379.040462,45.0520231 L379.040462,45.0520231 Z" id="FilaDoge" fill="url(#linearGradient-2)" fill-rule="nonzero"></path>
            </g>
        </g>
    </g>
</svg>